<svg id="svg" version="1.1" xmlns="http://www.w3.org/2000/svg" xmlns:xlink="http://www.w3.org/1999/xlink" width="400" height="291" viewBox="0, 0, 400,291"><g id="svgg"><path id="path0" d="M127.583 63.222 C 127.543 98.074,127.431 126.797,127.334 127.050 C 127.174 127.468,121.237 127.518,63.506 127.583 L -0.146 127.655 63.755 127.802 L 127.656 127.950 63.828 128.021 L 0.000 128.093 0.000 145.560 L 0.000 163.028 63.828 163.099 L 127.656 163.171 63.755 163.319 L -0.146 163.466 63.506 163.538 C 121.237 163.603,127.174 163.653,127.334 164.070 C 127.431 164.324,127.543 193.046,127.583 227.899 L 127.655 291.266 127.802 227.220 L 127.950 163.173 128.021 227.147 L 128.093 291.121 145.560 291.121 L 163.028 291.121 163.099 227.584 L 163.171 164.047 163.319 227.656 L 163.466 291.266 163.538 227.438 L 163.610 163.610 281.878 163.538 L 400.146 163.465 281.659 163.319 L 163.173 163.172 281.587 163.100 L 400.000 163.028 400.000 145.560 L 400.000 128.093 281.587 128.021 L 163.173 127.949 281.659 127.802 L 400.146 127.655 281.878 127.583 L 163.610 127.511 163.538 63.683 L 163.466 -0.146 163.319 63.464 L 163.171 127.074 163.099 63.537 L 163.028 0.000 145.560 0.000 L 128.093 0.000 128.021 63.974 L 127.950 127.948 127.802 63.901 L 127.655 -0.146 127.583 63.222 " stroke="none" fill="#042c6c" fill-rule="evenodd"></path><path id="path1" d="M109.098 54.512 L 109.025 109.025 54.512 109.098 L 0.000 109.172 0.000 118.196 L 0.000 127.220 63.464 127.220 L 126.929 127.220 126.929 63.610 L 126.929 0.000 118.050 -0.000 L 109.172 -0.000 109.098 54.512 M163.830 63.461 C 163.768 116.091,163.822 126.948,164.143 127.071 C 164.356 127.153,217.511 127.220,282.265 127.220 L 400.000 127.220 400.000 118.195 L 400.000 109.171 290.902 109.098 L 181.805 109.025 181.731 54.512 L 181.658 0.000 172.781 0.000 L 163.904 0.000 163.830 63.461 M0.000 172.925 L 0.000 181.949 54.512 182.023 L 109.025 182.096 109.098 236.608 L 109.172 291.121 118.050 291.121 L 126.929 291.121 126.929 227.511 L 126.929 163.901 63.464 163.901 L 0.000 163.901 0.000 172.925 M164.047 164.070 C 163.853 164.151,163.780 185.552,163.830 227.656 L 163.904 291.121 172.781 291.121 L 181.658 291.121 181.731 236.608 L 181.805 182.096 290.902 182.023 L 400.000 181.950 400.000 172.925 L 400.000 163.901 282.169 163.924 C 217.362 163.937,164.207 164.002,164.047 164.070 " stroke="none" fill="#faf9fa" fill-rule="evenodd"></path><path id="path2" d="M0.000 54.440 L 0.000 108.879 54.440 108.879 L 108.879 108.879 108.879 54.440 L 108.879 0.000 54.440 0.000 L 0.000 0.000 0.000 54.440 M182.023 54.440 C 182.063 84.381,182.194 108.879,182.314 108.879 C 182.434 108.879,231.463 108.879,291.266 108.879 L 400.000 108.879 400.000 54.440 L 400.000 0.000 290.974 -0.000 L 181.949 -0.000 182.023 54.440 M182.154 182.136 C 182.042 182.247,181.951 206.815,181.951 236.730 L 181.951 291.121 290.975 291.121 L 400.000 291.121 400.000 236.681 L 400.000 182.242 291.581 182.242 C 231.951 182.242,182.981 182.172,182.760 182.087 C 182.538 182.002,182.265 182.024,182.154 182.136 M0.000 236.681 L 0.000 291.121 54.440 291.121 L 108.879 291.121 108.879 236.681 L 108.879 182.242 54.440 182.242 L 0.000 182.242 0.000 236.681 " stroke="none" fill="#ec2c2c" fill-rule="evenodd"></path><path id="path3" d="M127.945 63.901 C 127.945 99.127,127.979 113.494,128.020 95.828 C 128.062 78.163,128.062 49.342,128.020 31.782 C 127.979 14.222,127.945 28.675,127.945 63.901 M163.171 63.464 C 163.171 98.450,163.205 112.762,163.246 95.269 C 163.287 77.777,163.287 49.152,163.246 31.659 C 163.205 14.167,163.171 28.479,163.171 63.464 M31.805 128.020 C 49.378 128.062,78.133 128.062,95.706 128.020 C 113.279 127.979,98.901 127.945,63.755 127.945 C 28.610 127.945,14.232 127.979,31.805 128.020 M222.513 128.020 C 255.150 128.061,308.468 128.061,340.999 128.020 C 373.530 127.980,346.827 127.946,281.659 127.946 C 216.492 127.946,189.876 127.980,222.513 128.020 M31.805 163.246 C 49.378 163.287,78.133 163.287,95.706 163.246 C 113.279 163.205,98.901 163.171,63.755 163.171 C 28.610 163.171,14.232 163.205,31.805 163.246 M222.513 163.246 C 255.150 163.287,308.468 163.287,340.999 163.246 C 373.530 163.205,346.827 163.172,281.659 163.172 C 216.492 163.172,189.876 163.205,222.513 163.246 M127.945 227.220 C 127.945 262.445,127.979 276.813,128.020 259.147 C 128.062 241.481,128.062 212.660,128.020 195.100 C 127.979 177.540,127.945 191.994,127.945 227.220 M163.171 227.656 C 163.171 262.642,163.205 276.954,163.246 259.461 C 163.287 241.969,163.287 213.344,163.246 195.852 C 163.205 178.359,163.171 192.671,163.171 227.656 " stroke="none" fill="#042464" fill-rule="evenodd"></path><path id="path4" d="M108.951 54.366 L 108.879 108.878 54.367 108.952 L -0.146 109.026 54.376 109.098 C 97.778 109.156,108.926 109.096,109.036 108.806 C 109.112 108.606,109.140 84.010,109.099 54.148 L 109.023 -0.146 108.951 54.366 M126.929 63.609 L 126.929 127.218 63.392 127.293 L -0.146 127.367 63.506 127.439 C 121.321 127.504,127.174 127.469,127.334 127.050 C 127.651 126.225,127.537 0.000,127.220 0.000 C 127.027 0.000,126.929 21.397,126.929 63.609 M163.753 63.319 C 163.753 98.224,163.787 112.547,163.828 95.147 C 163.870 77.747,163.870 49.188,163.828 31.683 C 163.787 14.177,163.753 28.413,163.753 63.319 M181.730 54.350 C 181.691 84.322,181.758 108.906,181.878 108.980 C 182.075 109.102,182.074 71.771,181.875 19.505 C 181.834 8.697,181.769 24.377,181.730 54.350 M236.923 109.098 C 266.918 109.138,315.914 109.138,345.802 109.098 C 375.691 109.057,351.150 109.023,291.266 109.023 C 231.383 109.023,206.928 109.057,236.923 109.098 M163.610 127.293 C 163.610 127.413,216.830 127.479,281.878 127.439 C 346.925 127.400,385.015 127.335,366.521 127.294 C 277.410 127.098,163.610 127.097,163.610 127.293 M63.392 163.828 L 126.929 163.902 126.929 227.512 C 126.929 269.724,127.027 291.121,127.220 291.121 C 127.537 291.121,127.651 164.896,127.334 164.070 C 127.174 163.652,121.321 163.617,63.506 163.682 L -0.146 163.754 63.392 163.828 M163.610 163.828 C 163.610 164.023,277.410 164.023,366.521 163.827 C 385.015 163.786,346.925 163.721,281.878 163.681 C 216.830 163.642,163.610 163.708,163.610 163.828 M163.753 227.802 C 163.753 262.707,163.787 277.030,163.828 259.630 C 163.870 242.230,163.870 213.671,163.828 196.166 C 163.787 178.660,163.753 192.897,163.753 227.802 M54.366 182.168 L 108.878 182.243 108.952 236.682 L 109.027 291.121 109.026 236.608 L 109.025 182.096 54.440 182.095 L -0.146 182.094 54.366 182.168 M181.794 182.314 C 181.718 182.515,181.689 207.111,181.730 236.972 L 181.805 291.266 181.951 236.608 C 182.031 206.547,182.059 181.951,182.014 181.951 C 181.969 181.951,181.870 182.114,181.794 182.314 M237.045 182.169 C 266.947 182.210,315.877 182.210,345.779 182.169 C 375.680 182.128,351.215 182.095,291.412 182.095 C 231.608 182.095,207.143 182.128,237.045 182.169 " stroke="none" fill="#b85c98" fill-rule="evenodd"></path></g></svg>